<?xml version="1.0" encoding="UTF-8"?>
<svg id="Layer_1" data-name="Layer 1" xmlns="http://www.w3.org/2000/svg" xmlns:xlink="http://www.w3.org/1999/xlink" viewBox="0 0 1000 1000">
  <defs>
    <style>
      .cls-1 {
        fill: url(#linear-gradient-2);
      }

      .cls-2 {
        fill: #fff;
      }

      .cls-3 {
        fill: url(#linear-gradient-5);
      }

      .cls-4 {
        fill: url(#linear-gradient-3);
      }

      .cls-5 {
        fill: url(#linear-gradient);
      }

      .cls-6 {
        fill: url(#linear-gradient-4);
      }
    </style>
    <linearGradient id="linear-gradient" x1="318.21" y1="350.5" x2="382.78" y2="350.5" gradientUnits="userSpaceOnUse">
      <stop offset="0" stop-color="#0026b7"/>
      <stop offset="1" stop-color="#0038ff"/>
    </linearGradient>
    <linearGradient id="linear-gradient-2" x1="617.22" y1="649.5" x2="681.79" y2="649.5" xlink:href="#linear-gradient"/>
    <linearGradient id="linear-gradient-3" x1="318.61" y1="503.3" x2="675.41" y2="503.3" xlink:href="#linear-gradient"/>
    <linearGradient id="linear-gradient-4" x1="318.56" y1="425.18" x2="531.8" y2="425.18" xlink:href="#linear-gradient"/>
    <linearGradient id="linear-gradient-5" x1="468.06" y1="574.68" x2="681.3" y2="574.68" xlink:href="#linear-gradient"/>
  </defs>
  <rect class="cls-2" x="127" y="127" width="746" height="746" rx="182.57" ry="182.57"/>
  <g>
    <path class="cls-5" d="m373.32,373.32c-12.61,12.61-33.05,12.61-45.65,0-12.61-12.61-12.61-33.05,0-45.65,12.61-12.61,33.05-12.61,45.65,0,12.61,12.61,12.61,33.05,0,45.65"/>
    <path class="cls-1" d="m672.33,672.33c-12.61,12.61-33.05,12.61-45.65,0-12.61-12.61-12.61-33.05,0-45.65,12.61-12.61,33.05-12.61,45.65,0,12.61,12.61,12.61,33.05,0,45.65"/>
    <path class="cls-4" d="m386.54,669.99c-15.61,15.61-40.92,15.61-56.53,0-16.17-16.18-14.97-44.09,2.52-58.84,3.35-2.83,7.05-5,10.94-6.54,43.48-17.15,84.77-39.37,117.82-72.42,20.97-20.97,43.65-43.65,64.62-64.62,33.05-33.05,55.27-74.34,72.42-117.81,1.53-3.9,3.71-7.59,6.54-10.94,14.74-17.49,42.66-18.69,58.84-2.52,15.61,15.61,15.61,40.92,0,56.53-4.14,4.14-8.96,7.17-14.09,9.09-42.49,15.92-82.59,37.59-114.68,69.67l-69.63,69.63c-32.09,32.09-53.75,72.19-69.67,114.68-1.92,5.13-4.95,9.95-9.09,14.09"/>
    <path class="cls-6" d="m386.93,520.09c-17.86,17.86-48.43,15.28-62.63-7.75-7.57-12.28-7.67-28.34-.22-40.68,7.88-13.05,20.87-19.58,33.95-19.7,21.97-.21,42.97-9,58.51-24.53l10.89-10.89c15.53-15.53,24.32-36.54,24.53-58.51.13-13.07,6.66-26.07,19.71-33.95,12.35-7.45,28.4-7.35,40.68.22,23.03,14.19,25.61,44.77,7.74,62.63-7.25,7.25-16.56,11.08-26.02,11.56-22.5,1.13-44.2,8.65-60.13,24.58l-10.87,10.87c-15.93,15.93-23.46,37.62-24.58,60.13-.47,9.46-4.31,18.77-11.56,26.02"/>
    <path class="cls-3" d="m536.43,669.6c-17.86,17.86-48.43,15.28-62.63-7.75-7.57-12.28-7.67-28.34-.22-40.68,7.88-13.05,20.87-19.58,33.95-19.7,21.97-.21,42.97-9,58.51-24.53l10.89-10.89c15.53-15.53,24.32-36.54,24.53-58.51.13-13.07,6.66-26.07,19.71-33.95,12.35-7.45,28.4-7.35,40.68.22,23.03,14.19,25.61,44.77,7.74,62.63-7.25,7.25-16.56,11.08-26.02,11.56-22.5,1.13-44.2,8.65-60.13,24.58l-10.87,10.87c-15.93,15.93-23.46,37.62-24.58,60.13-.47,9.46-4.31,18.77-11.56,26.02"/>
  </g>
</svg>